HIERARCHY
ROOT Hips
{
	OFFSET 0.00000 0.00000 0.00000
	CHANNELS 6 Xposition Yposition Zposition Zrotation Yrotation Xrotation 
	JOINT LHipJoint
	{
		OFFSET 0 0 0
		CHANNELS 3 Zrotation Yrotation Xrotation
		JOINT LeftHip
		{
			OFFSET 1.80322 -1.53100 0.99595
			CHANNELS 3 Zrotation Yrotation Xrotation
			JOINT LeftKnee
			{
				OFFSET 2.25177 -6.18669 0.00000
				CHANNELS 3 Zrotation Yrotation Xrotation
				JOINT LeftAnkle
				{
					OFFSET 2.26601 -6.22582 0.00000
					CHANNELS 3 Zrotation Yrotation Xrotation
					JOINT LeftToe
					{
						OFFSET 0.23701 -0.65119 2.15848
						CHANNELS 3 Zrotation Yrotation Xrotation
						End Site
						{
							OFFSET 0.00000 -0.00000 1.12949
						}
					}
				}
			}
		}
	}
	JOINT RHipJoint
	{
		OFFSET 0 0 0
		CHANNELS 3 Zrotation Yrotation Xrotation
		JOINT RightHip
		{
			OFFSET -1.93977 -1.53100 0.99595
			CHANNELS 3 Zrotation Yrotation Xrotation
			JOINT RightKnee
			{
				OFFSET -2.28036 -6.26523 0.00000
				CHANNELS 3 Zrotation Yrotation Xrotation
				JOINT RightAnkle
				{
					OFFSET -2.25490 -6.19528 0.00000
					CHANNELS 3 Zrotation Yrotation Xrotation
					JOINT RightToe
					{
						OFFSET -0.28375 -0.77960 2.23137
						CHANNELS 3 Zrotation Yrotation Xrotation
						End Site
						{
							OFFSET -0.00000 -0.00000 1.17899
						}
					}
				}
			}
		}
	}
	JOINT lowerback
	{
		OFFSET 0 0 0
		CHANNELS 3 Zrotation Yrotation Xrotation
		JOINT Chest
		{
			OFFSET -0.00088 2.12090 -0.02806
			CHANNELS 3 Zrotation Yrotation Xrotation
			JOINT Chest2
			{
				OFFSET -0.00286 2.09666 0.12974
				CHANNELS 3 Zrotation Yrotation Xrotation
				JOINT lowerneck
				{
					OFFSET 0 0 0
					CHANNELS 3 Zrotation Yrotation Xrotation
					JOINT Neck
					{
						OFFSET 0.07328 1.83526 0.07290
						CHANNELS 3 Zrotation Yrotation Xrotation
						JOINT Head
						{
							OFFSET -0.06683 1.74974 -0.49542
							CHANNELS 3 Zrotation Yrotation Xrotation
							End Site
							{
								OFFSET -0.03398 1.85163 -0.17573
							}
						}
					}
				}
				JOINT LeftCollar
				{
					OFFSET 0 0 0
					CHANNELS 3 Zrotation Yrotation Xrotation
					JOINT LeftShoulder
					{
						OFFSET 3.02113 1.18018 0.40602
CHANNELS 3 Zrotation Xrotation Yrotation
						JOINT LeftElbow
						{
OFFSET 0 -4.585380 -0.000000
CHANNELS 3 Zrotation Xrotation Yrotation
							JOINT LeftWrist
							{
OFFSET 0 -2.689350 -0.000000
CHANNELS 3 Zrotation Xrotation Yrotation
								JOINT lhand
								{
									OFFSET 0 0 0
CHANNELS 3 Zrotation Xrotation Yrotation
									JOINT LFingers
									{
OFFSET 0 -0.585060 -0.000000
CHANNELS 3 Zrotation Xrotation Yrotation
										End Site
										{
OFFSET 0 -0.471690 -0.000000
										}
									}
								}
								JOINT LThumb
								{
OFFSET 0 0.000000 0.000000
CHANNELS 3 Zrotation Xrotation Yrotation
									End Site
									{
OFFSET 0 -0.478890 0.478890
									}
								}
							}
						}
					}
				}
				JOINT RightCollar
				{
					OFFSET 0 0 0
					CHANNELS 3 Zrotation Yrotation Xrotation
					JOINT RightShoulder
					{
						OFFSET -2.95074 1.18843 0.31430
CHANNELS 3 Zrotation Xrotation Yrotation
						JOINT RightElbow
						{
OFFSET 0 -4.474500 -0.000000
CHANNELS 3 Zrotation Xrotation Yrotation
							JOINT RightWrist
							{
OFFSET 0 -2.938960 -0.000000
CHANNELS 3 Zrotation Xrotation Yrotation
								JOINT rhand
								{
									OFFSET 0 0 0
CHANNELS 3 Zrotation Xrotation Yrotation
									JOINT RFingers
									{
OFFSET 0 -0.405090 -0.000000
CHANNELS 3 Zrotation Xrotation Yrotation
										End Site
										{
OFFSET 0 -0.326600 -0.000000
										}
									}
								}
								JOINT RThumb
								{
OFFSET 0 0.000000 0.000000
CHANNELS 3 Zrotation Xrotation Yrotation
									End Site
									{
OFFSET 0 -0.331580 0.331580
									}
								}
							}
						}
					}
				}
			}
		}
	}
}
MOTION
Frames: 9
Frame Time: 0.008333333333333333
0.127632 15.656005 3.636186 20.379267 -30.419282 -29.838618 0.000000 0.000000 0.000000 80.105403 -13.070929 -52.418845 1.610909 7.985379 22.679827 14.063831 -8.024465 -73.187538 8.049286 16.147634 52.727367 0.000000 0.000000 0.000000 13.966530 8.190528 14.795429 -2.789962 -10.346956 30.107808 -0.994970 6.593593 -17.800721 -0.377088 -3.943234 10.917132 7.627162 -0.421398 0.521241 -10.026684 -0.638763 0.400066 -15.424118 -0.359237 -0.068327 16.892609 15.549150 8.436450 -17.002400 29.396656 41.015237 -6.621075 13.519075 21.512140 0.000000 0.000000 0.000000 20.637325 -4.419538 -16.746737 160.014085 -30.625361 114.475887 31.200763 0.833274 -4.158335 0.000000 0.000000 0.000000 -7.125000 0.000000 0.000000 3.779241 34.818557 0.946474 0.000000 0.000000 0.000000 -4.686975 -31.045298 69.739902 -139.894456 -48.132150 -101.482203 -29.670100 -24.805562 -7.760707 0.000000 0.000000 0.000000 7.125000 0.000000 0.000000 -2.053552 21.068143 -1.178751
0.102057 15.632220 3.706780 22.326787 -30.844113 -32.246463 0.000000 0.000000 0.000000 36.107305 19.546130 -83.216299 5.866599 14.295122 44.438849 -2.287084 36.905513 15.212394 0.521198 4.618791 12.825983 0.000000 0.000000 0.000000 12.256806 7.640761 15.352580 -3.035835 -10.752787 31.450587 -1.050202 7.457532 -18.311352 -0.609902 -4.998734 13.904953 6.069506 -0.785239 2.034789 -10.254825 -1.118795 0.855889 -14.670873 -0.625709 -0.571305 16.948430 15.726150 8.101620 -17.466041 29.667631 40.547969 -6.732838 13.583791 21.556220 0.000000 0.000000 0.000000 20.671943 -4.472145 -17.781045 159.895569 -30.768034 114.415351 31.520265 0.572213 -3.585157 0.000000 0.000000 0.000000 -7.125000 0.000000 0.000000 4.031574 34.162347 1.074304 0.000000 0.000000 0.000000 -5.905971 -32.433720 68.458959 -139.312332 -48.472110 -101.047480 -29.490710 -20.481100 -6.091794 0.000000 0.000000 0.000000 7.125000 0.000000 0.000000 -2.034498 22.990837 -1.078888
0.162154 15.597290 3.735278 21.953106 -30.650277 -31.091653 0.000000 0.000000 0.000000 21.881513 22.539342 -99.087286 13.418618 18.912925 70.406704 2.948500 22.724146 32.729365 0.104641 2.082484 5.733875 0.000000 0.000000 0.000000 12.593547 8.657776 14.271981 -3.239251 -11.072487 32.524887 -1.180364 6.642543 -19.406953 -0.621272 -5.044150 14.034582 6.637972 -0.969372 2.681738 -10.163642 -1.341376 0.876404 -14.908885 -0.764063 -0.991679 16.498654 15.551410 7.356859 -18.034980 29.440628 40.123351 -6.923837 13.350539 21.435918 0.000000 0.000000 0.000000 20.992773 -4.270146 -18.349525 159.764220 -30.925414 114.347943 30.351308 0.845439 -3.104086 0.000000 0.000000 0.000000 -7.125000 0.000000 0.000000 3.062151 33.564181 0.859596 0.000000 0.000000 0.000000 -6.049274 -33.253174 67.996020 -140.706990 -47.645194 -102.084864 -29.465147 -23.522219 -6.837440 0.000000 0.000000 0.000000 7.125000 0.000000 0.000000 -1.968375 22.140041 -1.082028
0.233418 15.538507 3.611919 21.147347 -28.418348 -29.305772 0.000000 0.000000 0.000000 12.142104 19.043482 -106.615693 21.400577 19.945350 94.099898 4.191102 16.252895 37.354531 0.009248 0.615732 1.692114 0.000000 0.000000 0.000000 12.487906 8.790932 11.883348 -3.652124 -11.682245 34.617312 -1.325916 5.408338 -20.660492 -0.623611 -5.053541 14.061243 5.640560 -1.326696 4.581608 -10.005278 -1.810398 1.301872 -14.026772 -1.020967 -1.721885 15.639647 15.169736 5.701231 -18.683528 28.837793 39.374796 -7.050042 12.852730 21.056601 0.000000 0.000000 0.000000 20.753799 -5.289059 -18.661794 159.902969 -30.759122 114.419073 30.903723 1.068330 -3.728696 0.000000 0.000000 0.000000 -7.125000 0.000000 0.000000 3.526169 34.306979 0.926622 0.000000 0.000000 0.000000 -7.069900 -34.785995 66.989104 -142.289350 -46.653306 -103.245095 -29.440528 -24.703619 -7.224047 0.000000 0.000000 0.000000 7.125000 0.000000 0.000000 -1.924816 21.700310 -1.077293
0.307237 15.510272 3.365207 19.585168 -26.843702 -26.483283 0.000000 0.000000 0.000000 3.244228 16.146471 -109.542879 27.754843 18.489554 113.239149 4.483704 13.378165 38.545725 0.004920 0.451034 1.239214 0.000000 0.000000 0.000000 13.291502 8.918823 8.515228 -3.863647 -11.976736 35.649594 -1.333772 4.225772 -20.851984 -0.651379 -5.162596 14.372919 5.146650 -1.391938 7.008077 -9.440354 -1.868431 1.492949 -13.016107 -1.085749 -2.868176 14.843616 14.574356 3.993211 -19.454039 27.829248 38.135629 -7.274404 12.207927 20.223263 0.000000 0.000000 0.000000 20.652184 -7.104308 -19.223393 159.926819 -30.730471 114.431260 31.285131 1.516131 -3.469455 0.000000 0.000000 0.000000 -7.125000 0.000000 0.000000 3.835200 34.018944 1.035047 0.000000 0.000000 0.000000 -8.931078 -36.705613 65.479775 -143.788056 -45.658353 -104.326115 -29.601475 -24.290775 -7.248289 0.000000 0.000000 0.000000 7.125000 0.000000 0.000000 -2.040026 21.659791 -1.143748
0.379279 15.478539 3.116946 16.545558 -25.640994 -22.152596 0.000000 0.000000 0.000000 -3.351976 14.681096 -109.896973 32.193351 15.970761 128.144162 4.860354 10.896528 40.268659 0.000765 0.168272 0.462295 0.000000 0.000000 0.000000 15.093683 8.553614 3.654014 -4.090494 -12.279772 36.729164 -1.266289 4.008137 -20.326489 -0.692825 -5.320993 14.826520 6.038490 -1.445214 8.724452 -8.555529 -1.785678 1.412660 -12.540913 -1.089335 -3.891850 14.496384 14.091503 2.102918 -19.793459 26.898510 37.163487 -7.327988 11.665433 19.699994 0.000000 0.000000 0.000000 21.336580 -7.942687 -19.647891 159.930213 -30.726417 114.433016 30.504813 0.040836 -1.298903 0.000000 0.000000 0.000000 -7.125000 0.000000 0.000000 3.147114 31.477874 1.041813 0.000000 0.000000 0.000000 -10.569619 -39.011139 63.874956 -144.417171 -45.223852 -104.774383 -29.797667 -24.947461 -7.348482 0.000000 0.000000 0.000000 7.125000 0.000000 0.000000 -2.175262 21.529206 -1.226061
0.416685 15.472777 2.866422 13.818005 -24.139241 -16.639289 0.000000 0.000000 0.000000 -7.863502 13.997137 -107.014531 34.539276 13.883977 137.224284 5.250905 6.483937 42.379340 0.017719 -0.854875 -2.349726 0.000000 0.000000 0.000000 16.608124 8.867910 -2.482744 -4.275860 -12.518786 37.592768 -1.182661 3.428547 -19.704712 -0.759105 -5.564248 15.525295 6.456228 -1.287290 8.597825 -7.737035 -1.497979 0.769667 -11.892054 -0.985321 -4.417891 13.916638 13.473766 0.655672 -19.959262 25.814589 36.518511 -7.244937 11.023851 19.048398 0.000000 0.000000 0.000000 22.330524 -8.471277 -20.669639 159.610237 -31.109036 114.268608 30.357828 0.812895 -2.112546 0.000000 0.000000 0.000000 -7.125000 0.000000 0.000000 3.049121 32.417715 0.940408 0.000000 0.000000 0.000000 -11.813946 -40.738147 62.435070 -144.550613 -45.130356 -104.869088 -29.593143 -26.181853 -7.588977 0.000000 0.000000 0.000000 7.125000 0.000000 0.000000 -2.010257 21.270912 -1.144713
0.424983 15.511730 2.599030 11.573579 -21.468017 -10.196446 0.000000 0.000000 0.000000 -9.700014 10.311772 -99.800458 34.986482 13.398966 139.118882 5.005141 2.291694 42.054857 0.051767 -1.468049 -4.037665 0.000000 0.000000 0.000000 17.381318 9.230763 -9.676226 -4.369597 -12.636630 38.022936 -1.072189 2.397444 -18.916957 -0.794049 -5.687913 15.881539 6.176324 -1.232195 7.048748 -6.982903 -1.476139 -0.333036 -10.866324 -1.007093 -4.680587 13.594170 12.847764 -0.964207 -19.971336 24.638507 35.923995 -7.284317 10.416730 18.619256 0.000000 0.000000 0.000000 23.406017 -9.539570 -21.948200 159.323629 -31.448636 114.119823 30.305479 2.487969 -3.522057 0.000000 0.000000 0.000000 -7.125000 0.000000 0.000000 3.030143 34.045853 0.815272 0.000000 0.000000 0.000000 -13.138845 -41.921706 61.036032 -144.364999 -45.260251 -104.737349 -29.768924 -25.641429 -7.835456 0.000000 0.000000 0.000000 7.125000 0.000000 0.000000 -2.119444 20.974030 -1.221162
0.430307 15.559762 2.347738 10.185269 -17.903321 -3.924021 0.000000 0.000000 0.000000 -10.520874 2.978964 -89.476805 33.967034 14.458891 134.888658 4.592707 1.605586 40.370174 0.046233 -1.387792 -3.816421 0.000000 0.000000 0.000000 17.287222 9.420170 -17.013460 -4.458601 -12.746891 38.428231 -0.988933 0.999961 -18.488823 -0.840949 -5.849519 16.348535 5.454358 -1.365732 5.077143 -6.229262 -1.759175 -1.674266 -9.569794 -1.174374 -4.994984 13.060502 12.275043 -2.532721 -19.926460 23.606736 35.434788 -7.241914 9.847404 18.266821 0.000000 0.000000 0.000000 24.128552 -11.025560 -22.921050 159.157544 -31.644033 114.032923 30.159453 2.505984 -3.774325 0.000000 0.000000 0.000000 -7.125000 0.000000 0.000000 2.912344 34.331763 0.763260 0.000000 0.000000 0.000000 -14.814771 -42.709093 59.715006 -144.778718 -44.969422 -105.030483 -29.849916 -26.460071 -7.871411 0.000000 0.000000 0.000000 7.125000 0.000000 0.000000 -2.175118 20.925928 -1.255650
